<?xml version="1.0" encoding="UTF-8"?> <!-- Generator: Adobe Illustrator 24.0.3, SVG Export Plug-In . SVG Version: 6.00 Build 0) --> <svg xmlns="http://www.w3.org/2000/svg" xmlns:xlink="http://www.w3.org/1999/xlink" version="1.1" id="Layer_1" x="0px" y="0px" width="148.1px" height="86px" viewBox="0 0 148.1 86" style="enable-background:new 0 0 148.1 86;" xml:space="preserve"> <style type="text/css"> .st0{fill:#53575A;} .st1{fill:#EA0029;} .st2{fill:#EB1F3C;} .st3{fill-rule:evenodd;clip-rule:evenodd;fill:#EA0029;} </style> <path class="st0" d="M2.6,72.4H0V70h7.9v2.4H5.3v13.4H2.6V72.4z"></path> <path class="st0" d="M9.5,85.8V70h2.7v6.4h2.9V70h2.7v15.8h-2.7v-7h-2.9v7H9.5z"></path> <path class="st0" d="M20.4,85.8V70h7.2v2.4h-4.5v4.1h3.5v2.4h-3.5v4.6h4.8v2.4L20.4,85.8L20.4,85.8z"></path> <path class="st0" d="M35.3,85.8V70H38v13.4h4.3v2.4H35.3z"></path> <path class="st0" d="M43.8,85.8V70H51v2.4h-4.5v4.1H50v2.4h-3.5v4.6h4.8v2.4L43.8,85.8L43.8,85.8z"></path> <path class="st0" d="M53.4,85.8V70h7.2v2.4h-4.5v4.1h3.5v2.4h-3.5v4.6h4.8v2.4L53.4,85.8L53.4,85.8z"></path> <path class="st0" d="M72.8,75.4v-1.2c0-1.3-0.6-1.9-1.3-1.9c-1.1,0-1.4,0.6-1.4,1.7v8c0,1.2,0.3,1.7,1.4,1.7c1,0,1.3-0.6,1.3-1.6 v-1.9h2.7V82c0,2.2-1.3,4-4,4c-2.8,0-4.1-1.8-4.1-4v-8.1c0-2.2,1.3-4,4.1-4c2.7,0,4,2,4,4.3v1.2H72.8z"></path> <path class="st0" d="M77.2,73.8c0-2.2,1.3-4,4.1-4c2.8,0,4.1,1.8,4.1,4v8.1c0,2.2-1.3,4-4.1,4c-2.8,0-4.1-1.8-4.1-4V73.8z M79.9,81.9c0,1.2,0.3,1.7,1.4,1.7s1.4-0.6,1.4-1.7v-8c0-1.2-0.3-1.7-1.4-1.7s-1.4,0.6-1.4,1.7V81.9z"></path> <path class="st0" d="M98.5,70v15.8h-2.4V73.5l0,0l-2.4,12.3h-1.3L90,73.5l0,0v12.3h-2.4V70h3.6l1.9,9.2l0,0L95,70H98.5z"></path> <path class="st0" d="M100.9,85.8V70h3.9c3.3,0,4.9,1.3,4.9,4.6s-1.5,4.6-4.9,4.6h-1.2v6.5h-2.7V85.8z M103.6,77.1h1 c1.8,0,2.3-0.5,2.3-2.4s-0.5-2.4-2.3-2.4h-1V77.1z"></path> <path class="st0" d="M112,85.8h-2.6l2.9-15.8h3.4l2.9,15.8H116l-0.5-3.5h-3L112,85.8z M112.9,79.9h2.2l-1.1-6.8l0,0L112.9,79.9z"></path> <path class="st0" d="M120,85.8V70h2.5l3.3,9l0,0v-9h2.4v15.8h-2.4l-3.4-9.8l0,0v9.8H120z"></path> <path class="st0" d="M135.7,85.8H133v-6.5l-3.3-9.2h2.7l1.9,6l0,0l1.8-6h2.7l-3.3,9.2v6.5H135.7z"></path> <polygon class="st1" points="0,0 5.3,0 5.3,36.3 10.7,36.3 10.7,26.1 25.1,26.1 25.1,31.7 16.1,31.7 16.1,36.3 25.1,36.3 25.1,41.6 16.1,41.6 16.1,48.5 25.1,48.5 25.1,54 10.7,54 10.7,41.6 0,41.6 "></polygon> <path class="st2" d="M50.9,42h16.9c0,0-2.8,2.5-5.3,4.5c-2.3,2.2-3.9,2.1-6.4,0C54.3,45.1,50.9,42,50.9,42L50.9,42z"></path> <path class="st2" d="M67.8,60.9H50.9c0,0,2.8-2.5,5.3-4.5c2.3-2.2,3.9-2.1,6.4,0C64.4,57.8,67.8,60.9,67.8,60.9L67.8,60.9z"></path> <path class="st3" d="M92.2,51.5c0-2,1.7-3.7,3.7-3.7s3.7,1.7,3.7,3.7s-1.7,3.7-3.7,3.7C93.8,55.2,92.2,53.5,92.2,51.5L92.2,51.5z M28.7,26.2V54h47l11.4,11.3l3.7-3.9L83.3,54h3.8c0,0,1.6,6.6,9,6.6c6.3,0,8.7-6.6,8.7-6.6h17.4l11.2,11.3l4-3.8l-7.5-7.6h9.2v-5.2 H130l7.5-7.5l-4-3.9l-11.1,11.3h-17.8c0,0-1.9-6.5-8.5-6.5c-7.1,0-8.8,6.5-8.8,6.5h-4l7.6-7.5l-3.7-3.9L75.8,48.8H33.9v-7.2h8.8 v-5.3h-8.8v-4.6h8.8v-5.5L28.7,26.2L28.7,26.2z"></path> <g> <path class="st1" d="M143.6,34.8c2.4,0,4.6,2,4.6,4.6s-2.1,4.6-4.6,4.6c-2.4,0-4.6-2-4.6-4.6C139,36.6,141,34.8,143.6,34.8z M143.6,43.2c2.1,0,3.7-1.7,3.7-3.8c0-2.1-1.6-3.8-3.7-3.8c-2.1,0-3.7,1.7-3.7,3.8C139.9,41.5,141.4,43.2,143.6,43.2z M141.7,36.6 h2c1.3,0,1.8,0.4,1.8,1.6c0,1-0.6,1.4-1.4,1.4l1.6,2.3h-0.9l-1.4-2.3h-0.9v2.3h-0.9L141.7,36.6L141.7,36.6z M142.6,38.9h0.9 c0.7,0,1.4,0,1.4-0.9c0-0.7-0.6-0.9-1.1-0.9h-1.1V38.9z"></path> </g> </svg> 